<svg preserveAspectRatio="none" width="100%" height="100%" overflow="visible" style="display: block;" viewBox="0 0 160 37" fill="none" xmlns="http://www.w3.org/2000/svg">
<g id="Logo" clip-path="url(#clip0_2003_68)">
<path id="Vector" fill-rule="evenodd" clip-rule="evenodd" d="M95.4118 11.201V6.85838H77.0035V11.6496H88.4968L76.2404 25.3343V29.6769H95.6821V24.8696H83.235L95.4118 11.201Z" fill="var(--fill-0, #21294B)"/>
<path id="Vector_2" fill-rule="evenodd" clip-rule="evenodd" d="M22.6687 14.3097C20.8405 20.8956 23.3045 27.77 30.3467 29.2763C36.1649 30.5102 45.1624 29.1481 45.8619 21.809H40.0596C39.4237 23.5717 37.1028 24.1485 35.4178 24.2767C32.763 24.469 29.5519 24.1966 28.4232 21.3764C28.2484 20.9597 27.9305 20.1265 28.1848 19.7739H45.9732C46.2593 17.4664 46.005 15.0147 44.9876 12.8995C40.9657 4.47077 25.3393 4.74318 22.6846 14.3257L22.6687 14.3097ZM28.2166 15.7518C29.1545 12.8354 31.9205 12.1304 34.6865 12.2586C36.928 12.3547 39.4873 13.236 39.9324 15.7518H28.2166Z" fill="var(--fill-0, #21294B)"/>
<path id="Vector_3" fill-rule="evenodd" clip-rule="evenodd" d="M140.495 6.44175C136.139 6.44175 133.929 7.5314 131.497 10.0632V6.89043H125.584V36.984H131.497V25.8471C133.532 28.4751 137.681 29.6288 140.495 29.6288C147.219 29.6288 152.544 24.469 152.544 18.0433C152.544 11.6176 147.219 6.4097 140.495 6.4097V6.44175ZM139.255 24.8216C134.804 24.8216 131.64 21.9052 131.64 18.0754C131.64 14.2456 134.804 11.2811 139.255 11.2811C143.706 11.2811 146.901 14.2936 146.901 18.0754C146.901 21.8571 143.547 24.8216 139.255 24.8216Z" fill="var(--fill-0, #21294B)"/>
<path id="Vector_4" fill-rule="evenodd" clip-rule="evenodd" d="M61.1386 6.89043C53.0154 6.89043 49.5181 10.6081 49.5181 16.8896V29.6769H55.4476V17.3062C55.4476 14.4218 56.8465 12.3547 61.1386 12.3547C65.4307 12.3547 66.8296 14.4218 66.8296 17.3062V29.6769H72.7591V16.8896C72.7591 10.6081 69.2618 6.89043 61.1386 6.89043Z" fill="var(--fill-0, #21294B)"/>
<path id="Vector_5" fill-rule="evenodd" clip-rule="evenodd" d="M116.189 19.2612C116.189 22.1455 114.79 24.2126 110.498 24.2126C106.206 24.2126 104.807 22.1455 104.807 19.2612V6.89043H98.8773V19.6778C98.8773 25.9593 102.375 29.6769 110.498 29.6769C118.621 29.6769 122.118 25.9593 122.118 19.6778V6.89043H116.189V19.2612Z" fill="var(--fill-0, #21294B)"/>
<path id="Vector_6" d="M0 0V29.6769H5.88177V18.2516V0H0Z" fill="var(--fill-0, #21294B)"/>
<path id="Vector_7" d="M22.8276 6.82633H15.5787L5.88177 18.2516L15.5787 29.6769H22.8276L13.1307 18.2516L22.8276 6.82633Z" fill="var(--fill-0, #21294B)"/>
<path id="Vector_8" d="M156.566 29.6769C158.463 29.6769 160 28.1273 160 26.2157C160 24.3041 158.463 22.7544 156.566 22.7544C154.67 22.7544 153.133 24.3041 153.133 26.2157C153.133 28.1273 154.67 29.6769 156.566 29.6769Z" fill="var(--fill-0, #2BD891)"/>
</g>
<defs>
<clipPath id="clip0_2003_68">
<rect width="160" height="37" fill="white"/>
</clipPath>
</defs>
</svg>
